<?xml version='1.0' encoding='utf-8'?>
<svg xmlns="http://www.w3.org/2000/svg" version="1.1" id="Capa_1" x="0px" y="0px" width="1920px" height="1080px" viewBox="0 0 1920 1080" enable-background="new 0 0 1920 1080"> <rect fill="#A0D9F7" width="1920" height="1080"/> <rect y="742.706" fill="#009EE2" width="1920" height="336.294"/> <path fill="#F8B133" d="M302.15,99.147c0,42.249-34.249,76.498-76.502,76.498c-42.249,0-76.498-34.249-76.498-76.498 c0-42.253,34.249-76.501,76.498-76.501C267.901,22.646,302.15,56.895,302.15,99.147z"/> <path fill="#FFEF42" d="M293.003,99.147c0,37.196-30.154,67.351-67.354,67.351c-37.196,0-67.351-30.155-67.351-67.351 c0-37.2,30.154-67.354,67.351-67.354C262.849,31.793,293.003,61.947,293.003,99.147z"/> <path fill="#FFEF42" d="M276.759,99.147c0,28.226-22.881,51.107-51.111,51.107c-28.226,0-51.107-22.881-51.107-51.107 c0-28.229,22.881-51.111,51.107-51.111C253.878,48.037,276.759,70.918,276.759,99.147z"/> <g> <polygon fill="#634E42" points="568.932,667.621 568.932,281.121 835.709,667.621 "/> <polygon fill="#7A6A58" points="568.932,667.621 568.932,281.121 302.15,667.621 "/> </g> <g> <polygon fill="#634E42" points="1397.318,671.021 1397.318,294.542 1667.813,671.021 "/> <polygon fill="#7A6A58" points="1397.318,671.021 1397.318,294.542 1126.82,671.021 "/> </g> <path fill="#93C01F" d="M214.704,664.938c48.998,0,150.913-170.512,250.869-166.592c99.955,3.92,101.915,166.592,182.271,166.592 S214.704,664.938,214.704,664.938z"/> <path fill="#006633" d="M366.313,666.924c48.998,0,150.913-250.719,250.87-244.954c99.956,5.762,101.915,244.954,182.271,244.954 S366.313,666.924,366.313,666.924z"/> <path fill="#006633" d="M965.511,658.346c-27.247,0-67.219-216.964-122.801-211.98c-55.582,4.984-73.374,211.98-118.058,211.98 S965.511,658.346,965.511,658.346z"/> <path fill="#006633" d="M945.594,667.621c48.998,0,150.914-269.694,250.869-263.497s101.915,263.497,182.271,263.497 C1459.09,667.621,945.594,667.621,945.594,667.621z"/> <path fill="#59A859" d="M714.313,664.903c112.932,0,145.975-214.897,323.175-214.897c201.066,0,216.677,214.897,285.537,214.897 C1323.025,664.903,601.385,664.903,714.313,664.903z"/> <path fill="#006633" d="M1252.887,663.005c48.998,0,150.913-182.601,250.868-178.401c99.956,4.199,83.702,176.365,164.059,176.365 S1252.887,663.005,1252.887,663.005z"/> <path fill="#93C01F" d="M481.482,664.938c48.998,0,150.913-170.512,250.869-166.592c99.955,3.92,101.915,166.592,182.271,166.592 S481.482,664.938,481.482,664.938z"/> <path fill="#93C01F" d="M1567.846,663.005c-48.997,0-150.912-170.513-250.867-166.593c-99.96,3.92-101.92,166.593-182.276,166.593 S1567.846,663.005,1567.846,663.005z"/> <path fill="#FFFFFF" d="M568.932,281.121l-73.803,106.922c12.655,18.635,24.83,20.644,35.428,2.014 c10.6-18.635,6.079-29.154,23.255-28.672c15.201,0.429-0.992,30.146,16.808,29.843c28.477-0.482,19.799-22.799,30.647-22.799 c10.844,0,21.237,29.383,36.021,11.721L568.932,281.121z"/> <path fill="#FFFFFF" d="M1397.392,294.542l74.829,104.151c-12.828,18.148-25.181,20.104-35.918,1.956 c-10.753-18.148-6.167-28.392-23.58-27.925c-15.412,0.421,1.003,29.36-17.046,29.069c-28.874-0.471-20.073-22.21-31.071-22.21 s-21.54,28.625-36.523,11.423L1397.392,294.542z"/> <path fill="#FFFFFF" d="M465.68,240.209c-0.427,0-0.842,0.042-1.265,0.063h-0.146c0-15.865-12.86-28.729-28.727-28.729 c-15.867,0-28.728,12.864-28.728,28.729h-0.145c-0.423-0.021-0.838-0.063-1.265-0.063c-15.212,0-27.544,12.332-27.544,27.542 c0,15.214,12.332,27.544,27.544,27.544h60.275c15.212,0,27.544-12.33,27.544-27.544C493.224,252.541,480.893,240.209,465.68,240.209 z"/> <path fill="#FFFFFF" d="M677.993,184.585c-0.578,0-1.141,0.06-1.711,0.086h-0.195c0-21.429-17.371-38.8-38.8-38.8 s-38.8,17.371-38.8,38.8h-0.195c-0.57-0.027-1.133-0.086-1.711-0.086c-20.544,0-37.2,16.656-37.2,37.202 c0,20.545,16.655,37.2,37.2,37.2h81.413c20.545,0,37.2-16.655,37.2-37.2C715.193,201.241,698.538,184.585,677.993,184.585z"/> <path fill="#FFFFFF" d="M1569.756,307.112c-0.386,0-0.762,0.038-1.147,0.058h-0.13c0-14.42-11.691-26.11-26.111-26.11 s-26.109,11.69-26.109,26.11h-0.135c-0.383-0.02-0.762-0.058-1.148-0.058c-13.83,0-25.035,11.208-25.035,25.035 c0,13.826,11.205,25.035,25.035,25.035h54.781c13.827,0,25.039-11.208,25.039-25.035 C1594.795,318.321,1583.583,307.112,1569.756,307.112z"/> <path fill="#FFFFFF" d="M1360.429,217.883c-0.459,0-0.903,0.048-1.362,0.069h-0.149c0-17.029-13.808-30.834-30.835-30.834 c-17.029,0-30.834,13.805-30.834,30.834h-0.156c-0.451-0.021-0.9-0.069-1.359-0.069c-16.326,0-29.559,13.235-29.559,29.563 c0,16.326,13.232,29.563,29.559,29.563h64.696c16.327,0,29.563-13.237,29.563-29.563 C1389.992,231.118,1376.756,217.883,1360.429,217.883z"/> <g> <rect x="309.165" y="562.996" fill="#7A6A58" width="21.078" height="41.9"/> <polygon fill="#008D36" points="319.705,583.219 356.947,583.219 331.31,556.576 349.661,556.576 327.801,529.93 339.402,529.559 319.705,499.734 "/> <polygon fill="#39A935" points="319.705,583.219 282.463,583.219 308.101,556.576 289.75,556.576 311.609,529.93 300.008,529.559 319.705,499.734 "/> </g> <g> <rect x="375.105" y="539.706" fill="#7A6A58" width="21.079" height="41.901"/> <polygon fill="#008D36" points="385.646,559.934 422.888,559.934 397.25,533.291 415.601,533.291 393.741,506.641 405.342,506.273 385.646,476.445 "/> <polygon fill="#39A935" points="385.646,559.934 348.403,559.934 374.041,533.291 355.689,533.291 377.549,506.641 365.948,506.273 385.646,476.445 "/> </g> <g> <rect x="440.762" y="487.126" fill="#7A6A58" width="21.079" height="41.9"/> <polygon fill="#008D36" points="451.302,507.353 488.544,507.353 462.907,480.71 481.258,480.71 459.398,454.06 470.999,453.692 451.302,423.865 "/> <polygon fill="#39A935" points="451.302,507.353 414.06,507.353 439.698,480.71 421.347,480.71 443.206,454.06 431.605,453.692 451.302,423.865 "/> </g> <g> <rect x="518.107" y="495.21" fill="#7A6A58" width="21.077" height="41.901"/> <polygon fill="#008D36" points="528.65,515.438 565.888,515.438 540.252,488.795 558.604,488.795 536.742,462.148 548.345,461.777 528.65,431.949 "/> <polygon fill="#39A935" points="528.65,515.438 491.406,515.438 517.043,488.795 498.692,488.795 520.552,462.148 508.951,461.777 528.65,431.949 "/> </g> <g> <rect x="544.812" y="539.71" fill="#7A6A58" width="21.077" height="41.897"/> <polygon fill="#008D36" points="555.35,559.938 592.592,559.938 566.952,533.295 585.304,533.295 563.446,506.648 575.045,506.273 555.35,476.449 "/> <polygon fill="#39A935" points="555.35,559.938 518.107,559.938 543.747,533.295 525.395,533.295 547.254,506.648 535.655,506.273 555.35,476.449 "/> </g> <g> <rect x="640.021" y="607.66" fill="#7A6A58" width="21.076" height="41.896"/> <polygon fill="#008D36" points="650.563,627.887 687.801,627.887 662.165,601.244 680.516,601.244 658.655,574.594 670.257,574.227 650.563,544.399 "/> <polygon fill="#39A935" points="650.563,627.887 613.316,627.887 638.956,601.244 620.604,601.244 642.462,574.594 630.864,574.227 650.563,544.399 "/> </g> <g> <rect x="677.263" y="497.81" fill="#7A6A58" width="21.08" height="41.896"/> <polygon fill="#008D36" points="687.801,518.036 725.047,518.036 699.407,491.394 717.758,491.394 695.9,464.744 707.499,464.376 687.801,434.549 "/> <polygon fill="#39A935" points="687.801,518.036 650.563,518.036 676.198,491.394 657.847,491.394 679.708,464.744 668.106,464.376 687.801,434.549 "/> </g> <g> <rect x="1193.133" y="373.818" fill="#7A6A58" width="21.08" height="41.893"/> <polygon fill="#008D36" points="1203.67,394.045 1240.916,394.045 1215.277,367.402 1233.628,367.402 1211.771,340.752 1223.369,340.385 1203.67,310.558 "/> <polygon fill="#39A935" points="1203.67,394.045 1166.432,394.045 1192.068,367.402 1173.717,367.402 1195.578,340.752 1183.976,340.385 1203.67,310.558 "/> </g> <g> <rect x="1420.535" y="502.414" fill="#7A6A58" width="16.093" height="31.986"/> <polygon fill="#008D36" points="1428.582,517.856 1457.02,517.856 1437.443,497.515 1451.453,497.515 1434.764,477.169 1443.621,476.89 1428.582,454.113 "/> <polygon fill="#39A935" points="1428.582,517.856 1400.151,517.856 1419.724,497.515 1405.713,497.515 1422.403,477.169 1413.541,476.89 1428.582,454.113 "/> </g> <g> <rect x="1522.198" y="519.342" fill="#7A6A58" width="16.093" height="31.986"/> <polygon fill="#008D36" points="1530.244,534.783 1558.682,534.783 1539.105,514.441 1553.116,514.441 1536.427,494.093 1545.285,493.813 1530.244,471.041 "/> <polygon fill="#39A935" points="1530.244,534.783 1501.814,534.783 1521.387,514.441 1507.377,514.441 1524.066,494.093 1515.205,493.813 1530.244,471.041 "/> </g> <g> <rect x="1559.797" y="594.301" fill="#7A6A58" width="16.092" height="31.986"/> <polygon fill="#008D36" points="1567.843,609.742 1596.28,609.742 1576.704,589.4 1590.715,589.4 1574.025,569.055 1582.883,568.775 1567.843,546 "/> <polygon fill="#39A935" points="1567.843,609.742 1539.412,609.742 1558.984,589.4 1544.975,589.4 1561.664,569.055 1552.803,568.775 1567.843,546 "/> </g> <g> <rect x="837.607" y="430.093" fill="#7A6A58" width="10.596" height="21.058"/> <polygon fill="#008D36" points="842.901,440.26 861.628,440.26 848.739,426.866 857.965,426.866 846.975,413.468 852.809,413.284 842.901,398.294 "/> <polygon fill="#39A935" points="842.901,440.26 824.187,440.26 837.075,426.866 827.85,426.866 838.836,413.468 833.002,413.284 842.901,398.294 "/> </g> <g> <rect x="861.624" y="484.538" fill="#7A6A58" width="10.596" height="21.062"/> <polygon fill="#008D36" points="866.918,494.705 885.645,494.705 872.756,481.314 881.98,481.314 870.991,467.917 876.824,467.733 866.918,452.739 "/> <polygon fill="#39A935" points="866.918,494.705 848.203,494.705 861.092,481.314 851.867,481.314 862.854,467.917 857.02,467.733 866.918,452.739 "/> </g> <g> <rect x="802.689" y="481.82" fill="#7A6A58" width="10.596" height="21.061"/> <polygon fill="#008D36" points="807.983,491.987 826.709,491.987 813.82,478.593 823.046,478.593 812.056,465.199 817.89,465.016 807.983,450.018 "/> <polygon fill="#39A935" points="807.983,491.987 789.268,491.987 802.157,478.593 792.932,478.593 803.918,465.199 798.084,465.016 807.983,450.018 "/> </g> <g> <rect x="462.244" y="586.706" fill="#7A6A58" width="21.079" height="41.9"/> <polygon fill="#008D36" points="472.785,606.933 510.027,606.933 484.389,580.29 502.74,580.29 480.881,553.641 492.481,553.272 472.785,523.445 "/> <polygon fill="#39A935" points="472.785,606.933 435.543,606.933 461.181,580.29 442.829,580.29 464.688,553.641 453.088,553.272 472.785,523.445 "/> </g> <g> <path fill="#35A8E0" d="M1547.816,796.891c3.118,0,5.669-2.551,5.669-5.669v-43.42c0-3.118-2.551-5.669-5.669-5.669H383.206 c-3.118,0-5.669,2.551-5.669,5.669v43.42c0,3.118,2.551,5.669,5.669,5.669h215.643c3.118,0,5.669,2.551,5.669,5.669v38.495 c0,3.118-2.551,5.669-5.669,5.669h-154.5c-3.118,0-5.669,2.551-5.669,5.669v43.425c0,3.118,2.551,5.669,5.669,5.669h94.198 c3.118,0,5.669,2.551,5.669,5.669v38.49c0,3.118-2.551,5.669-5.669,5.669H406.659c-3.118,0-5.669,2.551-5.669,5.669v43.417 c0,3.118,2.551,5.669,5.669,5.669h1101.788c3.118,0,5.669-2.551,5.669-5.669v-43.417c0-3.118-2.551-5.669-5.669-5.669h-76.605 c-3.118,0-5.669-2.551-5.669-5.669v-38.49c0-3.118,2.551-5.669,5.669-5.669h43.941c3.118,0,5.669-2.551,5.669-5.669v-43.425 c0-3.118-2.551-5.669-5.669-5.669h-89.17c-3.118,0-5.669-2.551-5.669-5.669V802.56c0-3.118,2.551-5.669,5.669-5.669H1547.816z"/> </g> <g> <path fill="#FFEF42" d="M1686.566,719.188c0,12.988-13.818,23.519-30.869,23.519H235.49c-17.05,0-30.875-10.53-30.875-23.519 v-36.584c0-12.988,13.825-23.519,30.875-23.519h1420.207c17.051,0,30.869,10.53,30.869,23.519V719.188z"/> <path opacity="0.5" fill="#1D1D1B" d="M204.616,701.223v17.965c0,12.988,13.825,23.519,30.875,23.519h1420.207 c17.051,0,30.869-10.53,30.869-23.519v-17.965H204.616z"/> </g> <path opacity="0.7" fill="#29235C" d="M1593.091,891.85c0,3.094-3.556,5.606-7.938,5.606h-31.429c-4.383,0-7.938-2.513-7.938-5.606 v-3.233c0-3.098,3.556-5.609,7.938-5.609h31.429c4.383,0,7.938,2.512,7.938,5.609V891.85z"/> <g> <path fill="#E4231F" d="M1540.507,854.351c-2.411-2.465-10.104-2.507-10.261-4.315c-0.154-1.806,7.545-2.686,10.261-5.993 C1543.224,840.731,1542.916,856.815,1540.507,854.351z"/> <path fill="#F2E500" d="M1572.961,848.168c0,9.354-7.584,16.938-16.935,16.938c-9.354,0-16.938-7.584-16.938-16.938 c0-9.354,7.583-16.938,16.938-16.938C1565.377,831.23,1572.961,838.813,1572.961,848.168z"/> <path d="M1550.296,847.041c0,1.652-1.339,2.994-2.997,2.994c-1.655,0-2.997-1.342-2.997-2.994c0-1.657,1.342-2.999,2.997-2.999 C1548.957,844.042,1550.296,845.384,1550.296,847.041z"/> <path fill="#F2E500" d="M1553.538,853.006c-7.702,0-13.947,7.584-13.947,16.938s6.245,16.938,13.947,16.938c0,0,11.416,0,20.765,0 c15.327,0,27.323-13.098,20.216-33.875C1585.631,858.137,1553.538,853.006,1553.538,853.006z"/> <path fill="#E84E1B" d="M1562.563,860.705c-4.66,0-8.44,3.779-8.44,8.443c0,4.66,3.78,8.441,8.44,8.441c0,0,6.922,0.34,12.57,0 c5.647-0.344,12.64-12.718,12.238-16.885C1581.993,863.262,1562.563,860.705,1562.563,860.705z"/> </g> <path opacity="0.7" fill="#29235C" d="M1645.837,905.243c0,3.098-3.556,5.609-7.941,5.609h-31.426c-4.386,0-7.941-2.512-7.941-5.609 v-3.233c0-3.097,3.556-5.609,7.941-5.609h31.426c4.386,0,7.941,2.513,7.941,5.609V905.243z"/> <path opacity="0.7" fill="#29235C" d="M1647.604,866.433c0,2.456-2.625,4.45-5.861,4.45h-23.206c-3.236,0-5.864-1.994-5.864-4.45 v-2.56c0-2.456,2.628-4.448,5.864-4.448h23.206c3.236,0,5.861,1.992,5.861,4.448V866.433z"/> <g> <path fill="#E4231F" d="M1608.778,836.7c-1.782-1.953-7.463-1.985-7.578-3.419c-0.115-1.437,5.571-2.131,7.578-4.756 C1610.782,825.901,1610.558,838.654,1608.778,836.7z"/> <ellipse fill="#F2E500" cx="1620.236" cy="831.801" rx="12.505" ry="13.43"/> <path d="M1616.004,830.904c0,1.31-0.989,2.377-2.21,2.377c-1.224,0-2.214-1.067-2.214-2.377c0-1.314,0.99-2.379,2.214-2.379 C1615.015,828.525,1616.004,829.59,1616.004,830.904z"/> <path fill="#F2E500" d="M1618.401,835.637c-5.689,0-10.3,6.012-10.3,13.426c0,7.419,4.61,13.434,10.3,13.434c0,0,8.429,0,15.332,0 c11.317,0,20.175-10.386,14.926-26.859C1642.098,839.703,1618.401,835.637,1618.401,835.637z"/> <path fill="#E84E1B" d="M1625.065,841.739c-3.443,0-6.236,2.997-6.236,6.694s2.793,6.694,6.236,6.694c0,0,5.11,0.269,9.28,0 c4.167-0.269,9.333-10.084,9.035-13.389C1639.408,843.768,1625.065,841.739,1625.065,841.739z"/> </g> <path opacity="0.7" fill="#29235C" d="M1688.95,886.914c0,2.455-2.624,4.447-5.86,4.447h-23.203c-3.239,0-5.863-1.992-5.863-4.447 v-2.563c0-2.456,2.624-4.448,5.863-4.448h23.203c3.236,0,5.86,1.992,5.86,4.448V886.914z"/> <g> <path fill="#E4231F" d="M1650.125,857.182c-1.779-1.957-7.463-1.988-7.575-3.422c-0.115-1.434,5.571-2.131,7.575-4.756 C1652.129,846.38,1651.904,859.133,1650.125,857.182z"/> <ellipse fill="#F2E500" cx="1661.583" cy="852.279" rx="12.504" ry="13.429"/> <ellipse cx="1655.141" cy="851.383" rx="2.214" ry="2.377"/> <path fill="#F2E500" d="M1659.748,856.115c-5.689,0-10.3,6.011-10.3,13.426c0,7.419,4.61,13.434,10.3,13.434c0,0,8.429,0,15.333,0 c11.316,0,20.174-10.386,14.925-26.859C1683.444,860.182,1659.748,856.115,1659.748,856.115z"/> <path fill="#E84E1B" d="M1666.412,862.218c-3.442,0-6.232,2.997-6.232,6.694s2.79,6.697,6.232,6.697c0,0,5.11,0.269,9.28,0 c4.17-0.272,9.334-10.088,9.038-13.392C1680.759,864.245,1666.412,862.218,1666.412,862.218z"/> </g> <g> <path fill="#E4231F" d="M1593.25,867.744c-2.411-2.465-10.104-2.503-10.261-4.312c-0.154-1.809,7.545-2.687,10.261-5.993 C1595.966,854.129,1595.659,870.213,1593.25,867.744z"/> <circle fill="#F2E500" cx="1608.768" cy="861.564" r="16.937"/> <path d="M1603.038,860.436c0,1.655-1.338,2.997-2.996,2.997c-1.655,0-2.997-1.342-2.997-2.997c0-1.654,1.342-2.996,2.997-2.996 C1601.7,857.439,1603.038,858.781,1603.038,860.436z"/> <path fill="#F2E500" d="M1606.28,866.4c-7.701,0-13.943,7.583-13.943,16.938c0,9.354,6.242,16.938,13.943,16.938 c0,0,11.418,0,20.769,0c15.324,0,27.323-13.096,20.212-33.875C1638.377,871.533,1606.28,866.4,1606.28,866.4z"/> <path fill="#E84E1B" d="M1615.307,874.102c-4.661,0-8.44,3.78-8.44,8.441c0,4.663,3.779,8.44,8.44,8.44c0,0,6.922,0.34,12.572,0 c5.646-0.34,12.641-12.718,12.239-16.882C1634.735,876.658,1615.307,874.102,1615.307,874.102z"/> </g> </svg>